<svg xmlns="http://www.w3.org/2000/svg" viewBox="0 0 64 64" id="dead-cat"><path fill="#231f20" d="M61.425 41.129c-.814-1.139-1.686-2.237-2.501-3.375-.419-.585-.565-1.031.445-1.278 2.125-.52 2.389-1.14 1.577-3.251-1.053-2.737-2.619-5.201-4.162-7.672-1.064-1.705-1.33-3.425-.317-5.238 1.814-3.245 2.037-6.719 1.38-10.28-.396-2.147-.914-4.274-1.444-6.393-.595-2.381-1.694-2.673-3.522-.954-2.531 2.38-5.09 4.733-7.527 7.207-1.35 1.371-2.809 1.93-4.683 1.554-5.785-1.163-11.578-1.137-17.363-.001-1.878.369-3.334-.19-4.683-1.56-2.437-2.474-4.994-4.83-7.524-7.21-1.815-1.704-2.934-1.397-3.525.974-.515 2.066-1.013 4.139-1.414 6.228-.647 3.377-.605 6.747 1.08 9.831 1.227 2.245 1.077 4.207-.297 6.29-1.511 2.291-2.923 4.653-3.91 7.234-.802 2.097-.535 2.702 1.593 3.243.803.204.939.526.515 1.138-.572.829-1.223 1.604-1.793 2.434-.615.894-1.752 1.703-1.205 2.937.54 1.217 1.757.612 2.715.589.822-.019 1.05.25.558.971-.537.786-1.108 1.554-1.587 2.375-1.523 2.608-1.231 3.332 1.572 4.046.026.471-.392.639-.639.916-1.182 1.331-1.045 2.334.646 2.927 4.915 1.723 9.803 3.561 14.94 4.554 3.727.721 7.597.866 10.991 2.866.542.319 1.09.161 1.592-.146 1.808-1.106 3.827-1.657 5.881-1.9 6.346-.751 12.333-2.809 18.337-4.824 3.334-1.119 3.471-1.547 1.436-4.23-.024-.032.002-.102.004-.155 2.806-.752 3.074-1.435 1.562-4.053-.336-.581-.753-1.115-1.092-1.695-.268-.459-.982-.863-.648-1.421.322-.538 1.023-.163 1.555-.131.681.04 1.383.142 1.817-.541.479-.753.066-1.41-.36-2.006z"></path><path fill="#f1f2f2" d="M41.7 57.808c-3.009.206-5.983.908-8.814 2.038-.618.246-1.15.255-1.768.007-2.884-1.154-5.931-1.639-8.976-2.128-3.969-.638-6.955-4.194-6.962-8.662.086-2.332 1.159-4.452 3.538-5.904 2.584-1.576 5.456-1.939 8.367-2.222.579-.056.931.174 1.236.654.266.418.608.812.99 1.128 1.534 1.272 1.748 2.083.675 3.73-1.095 1.681-2.458 3.064-4.652 3.21-.625.042-1.345.138-1.283.982.059.804.782.879 1.404.879 2.492-.001 4.183-1.482 5.585-3.28.766-.983 1.112-1.048 1.892-.016 1.267 1.678 2.835 3.055 5.074 3.274.765.075 1.78.203 1.905-.837.124-1.029-.876-.925-1.575-1.035-2.262-.359-3.662-1.836-4.637-3.751-.601-1.181-.231-1.954.715-3.127 1.931-2.394 4.046-1.661 6.295-1.306 1.345.212 2.593.687 3.795 1.313 4.342 2.263 5.606 7.158 2.921 11.272-1.366 2.09-2.966 3.592-5.725 3.781z"></path><path fill="#58595b" d="M29.912 40.072c-.037-1.278 1.022-1.42 2.03-1.449.987.03 2.077.072 2.124 1.357.046 1.255-.955 1.748-2.029 1.776-1.082.028-2.089-.461-2.125-1.684z"></path><radialGradient id="a" cx="33.667" cy="-1.667" r="30.667" gradientUnits="userSpaceOnUse"><stop offset="0"></stop><stop offset="1" stop-color="#2484c6" stop-opacity="0"></stop></radialGradient><path fill="url(#a)" d="M57.151 45.843c.098.136.202.269.3.406 1.474 2.065 1.474 2.065-.887 2.374-1.392.182-1.771 1.072-.955 2.246.032.046.08.083.103.132.391.82 1.908 1.236 1.42 2.159-.331.626-1.662.745-2.56 1.045-1.895.633-3.8 1.236-5.748 1.866-.175-.836.351-1.192.601-1.647 2.748-5.006 1.038-10.652-3.993-13.334-2.389-1.274-4.961-1.717-7.597-1.945-1.033-.089-1.862-.335-2.616-1.208-1.519-1.759-4.833-1.832-6.349-.091-.85.977-1.78 1.217-2.919 1.319-2.58.232-5.093.685-7.427 1.938-5.023 2.696-6.72 8.347-3.941 13.338.241.434.495.861 1.031 1.792l-5.101-1.663c-.373-.121-.751-.229-1.119-.364-.889-.327-2.231-.431-2.553-1.056-.47-.915.993-1.362 1.449-2.146.315-.541.763-1.028.387-1.681-.39-.678-1.082-.691-1.772-.717-.515-.019-1.22.453-1.5-.202-.229-.534.363-1.007.66-1.466.488-.752 1.06-1.45 1.522-2.216 1.194-1.98.636-3.003-1.686-3.168-.271-.019-.54-.066-.93-.115.398-1.225 1.357-1.983 1.916-2.987 1.121-2.013.786-3.112-1.363-3.774-.982-.305-.715-.788-.464-1.378.926-2.174 2.11-4.214 3.413-6.172 1.813-2.726 2.107-5.354.402-8.331-1.404-2.453-1.407-5.282-.928-8.039.335-1.93.853-3.828 1.253-5.747.239-1.144.686-.879 1.307-.287 1.904 1.819 3.85 3.595 5.742 5.428 1.327 1.286 2.551 2.655 4.37 3.331 1.102.409 1.333 1.308.672 2.321-.899 1.378-.631 2.662.267 3.899.343.472.788.894 1.41.519.53-.319.508-.897.214-1.339-.66-.989-.502-1.873.121-2.795.178-.264.201-.633.296-.954.17-.574-.432-1.43.223-1.706.85-.358 1.852-.454 2.792-.471.964-.018.998.801.544 1.278-1.996 2.095.19 3.988.262 5.967.026.723.99.522 1.442-.024.726-.876.503-1.809-.078-2.64-.564-.806-.605-1.531.035-2.285.072-.084.102-.205.177-.285.609-.653-.026-2.01.771-2.227 1.204-.328 2.548-.146 3.833-.166.219-.003.468.011.655.109.436.228 1.289 4.225 1.01 4.713-.428.748-.797 1.499-.399 2.377.219.483.548.892 1.129.851.651-.046.82-.535.74-1.089-.086-.602.101-1.101.424-1.579.752-1.116.663-2.202-.086-3.286-.281-.407-.663-.848-.366-1.376.364-.647.998-.317 1.522-.292 1.351.064 2.609.184 2.208 2.154-.093.457.293 1.067.579 1.533.461.752.211 1.375-.154 2.042-.28.513-.469 1.117.153 1.488.712.425 1.146-.124 1.502-.646.785-1.148 1.057-2.358.26-3.614-.801-1.263-.445-2.127.89-2.625 1.303-.487 2.269-1.402 3.241-2.342 2.175-2.104 4.377-4.179 6.576-6.257.445-.42 1.03-1.058 1.242.127.511 2.86 1.623 5.61 1.538 8.582-.062 2.159-.423 4.213-1.519 6.123-1.298 2.262-1.056 4.512.266 6.695 1.364 2.252 2.771 4.479 3.863 6.887.405.893.431 1.354-.749 1.6-1.587.331-2.09 1.552-1.307 3.093.6 1.182 1.431 2.246 2.261 3.519-3.828.608-4.139 1.408-1.928 4.481z"></path><path fill="#f1f2f2" d="M43.636 28.397c-.746.813-1.421 1.189-2.332.209-.359-.386-.933-.503-1.351-.051-.488.528-.176 1.026.215 1.477.283.327.719.551.747 1.149-.114.175-.255.411-.415.633-.391.542-.978 1.135-.342 1.762.661.653 1.257.076 1.683-.441.622-.754 1.089-.462 1.645.067.448.427 1.013.864 1.611.305.624-.583.209-1.172-.27-1.571-.931-.776-.833-1.418.032-2.167.501-.434 1.046-1.042.376-1.702-.583-.572-1.189-.117-1.599.33zm-19.785 1.566c.41-.329.622-.851.248-1.341-.379-.497-.98-.45-1.335-.074-.958 1.019-1.67.679-2.465-.201-.409-.453-1.041-.847-1.599-.23-.544.603-.065 1.127.345 1.604.32.373.796.638.856 1.28-.17.216-.365.482-.579.731-.43.501-1.098 1.012-.494 1.709.614.708 1.268.19 1.721-.292.71-.756 1.194-.497 1.756.159.376.438.914.782 1.465.337.552-.445.371-1.061-.04-1.481-.801-.817-.777-1.482.121-2.201z"></path></svg>